<svg width="19" height="16" viewBox="0 0 19 16" fill="none" xmlns="http://www.w3.org/2000/svg">
<path d="M17.6293 2.96255H7.13213C7.0586 2.95625 6.98463 2.96848 6.91738 2.99805C6.85013 3.02762 6.79186 3.07353 6.7482 3.13135C6.70454 3.18917 6.67696 3.25695 6.66812 3.32815C6.65929 3.39934 6.6695 3.47154 6.69777 3.53779L8.35819 8.26262C8.40658 8.39303 8.49384 8.50649 8.60886 8.58853C8.72389 8.67058 8.86146 8.71749 9.00403 8.72328H15.8857C16.0283 8.71749 16.166 8.67058 16.2811 8.58851C16.3962 8.50645 16.4836 8.39296 16.532 8.26249L17.9782 3.42451C18.0008 3.3713 18.0089 3.31333 18.0018 3.25618C17.9946 3.19903 17.9725 3.14463 17.9374 3.09821C17.9024 3.05179 17.8556 3.01491 17.8016 2.99113C17.7477 2.96735 17.6883 2.95746 17.6293 2.96242V2.96255Z" fill="black"/>
<path d="M9.65173 14.1667C9.65173 14.4683 9.55965 14.7632 9.38714 15.014C9.21462 15.2648 8.96942 15.4603 8.68254 15.5757C8.39566 15.6912 8.07998 15.7214 7.77543 15.6625C7.47088 15.6037 7.19113 15.4584 6.97156 15.2451C6.75199 15.0318 6.60247 14.7601 6.54189 14.4642C6.48131 14.1684 6.5124 13.8618 6.63123 13.5831C6.75006 13.3044 6.95129 13.0662 7.20948 12.8986C7.46766 12.731 7.77121 12.6416 8.08173 12.6416C8.2879 12.6416 8.49206 12.681 8.68254 12.7577C8.87302 12.8343 9.0461 12.9467 9.19189 13.0883C9.33768 13.2299 9.45332 13.398 9.53222 13.5831C9.61112 13.7681 9.65173 13.9664 9.65173 14.1667Z" fill="black"/>
<path d="M16.2955 14.1853C16.2955 14.4869 16.2035 14.7818 16.0309 15.0326C15.8584 15.2834 15.6132 15.4788 15.3263 15.5943C15.0395 15.7097 14.7238 15.7399 14.4192 15.6811C14.1147 15.6222 13.8349 15.477 13.6154 15.2637C13.3958 15.0504 13.2463 14.7786 13.1857 14.4828C13.1251 14.187 13.1562 13.8803 13.275 13.6016C13.3939 13.323 13.5951 13.0848 13.8533 12.9172C14.1115 12.7496 14.415 12.6602 14.7255 12.6602C15.1419 12.6604 15.5411 12.8211 15.8355 13.1071C16.1298 13.393 16.2953 13.7808 16.2955 14.1853V14.1853Z" fill="black"/>
<path d="M16.6117 10.2749H7.42714L3.75121 0H0.889126C0.653315 3.4134e-09 0.427162 0.0909974 0.260419 0.252974C0.0936755 0.41495 0 0.634637 0 0.863706C0 1.09278 0.0936755 1.31246 0.260419 1.47444C0.427162 1.63641 0.653315 1.72741 0.889126 1.72741H2.48689L6.16282 12.0023H16.6117C16.7285 12.0023 16.8441 11.98 16.952 11.9366C17.0599 11.8932 17.1579 11.8296 17.2404 11.7494C17.323 11.6692 17.3885 11.5739 17.4332 11.4692C17.4779 11.3644 17.5009 11.2521 17.5009 11.1386C17.5009 11.0252 17.4779 10.9129 17.4332 10.8081C17.3885 10.7033 17.323 10.6081 17.2404 10.5279C17.1579 10.4477 17.0599 10.3841 16.952 10.3407C16.8441 10.2973 16.7285 10.2749 16.6117 10.2749V10.2749Z" fill="black"/>
</svg>
