<svg width="24" height="34" viewBox="0 0 24 34" fill="none" xmlns="http://www.w3.org/2000/svg">
<path d="M16.9928 5.4585H15.6624C15.481 5.4585 15.3298 5.58908 15.3298 5.74579V13.3722V13.3983C15.3298 14.9915 13.8482 16.2712 12.0038 16.2712C10.1594 16.2712 8.6778 14.9915 8.6778 13.3983V13.3722V5.74579C8.6778 5.58908 8.52662 5.4585 8.3452 5.4585H7.0148C6.83339 5.4585 6.68221 5.58908 6.68221 5.74579V13.3983C6.68221 15.9056 9.0104 17.9428 11.9131 17.995H12.034H12.155C15.0274 17.9428 17.3858 15.9056 17.3858 13.3983V5.74579C17.3556 5.58908 17.2044 5.4585 16.9928 5.4585V5.4585Z" fill="black"/>
<path d="M23.4633 0H0.574491C0.332601 0 0.151184 0.156706 0.151184 0.365648V15.7229V17.525V32.6994C0.151184 32.9083 0.332601 33.065 0.574491 33.065H23.4633C23.7052 33.065 23.8866 32.9083 23.8866 32.6994V17.525V15.7229V0.365648C23.8866 0.156706 23.7052 0 23.4633 0V0ZM2.0863 2.03718V1.85436C2.0863 1.74989 2.17701 1.64542 2.32819 1.64542H2.53985H21.5584H21.7701C21.891 1.64542 22.012 1.72377 22.012 1.85436V2.03718V16.8198L12.3666 25.1514L12.2154 25.2819C12.1247 25.3603 11.9735 25.3603 11.8828 25.2819L11.7317 25.1514L2.0863 16.8198V2.03718ZM21.9515 31.0278V31.2107C21.9515 31.3151 21.8608 31.4196 21.7096 31.4196H21.4979H2.50961H2.29796C2.17701 31.4196 2.05607 31.3413 2.05607 31.2107V31.0278V19.1704L11.7014 27.502C11.8526 27.6325 12.1247 27.6325 12.3061 27.502L21.9515 19.1704V31.0278Z" fill="black"/>
</svg>
